<svg width="15" height="15" viewBox="0 0 9 9" fill="none" xmlns="http://www.w3.org/2000/svg">
<path d="M1.19999 0.19L4.49999 3.49L7.79999 0.2C7.9314 0.0663 8.11269 -0.00620003 8.29999 -2.5495e-08C8.67609 0.0243 8.97569 0.3239 8.99999 0.7C9.00179 0.8806 8.92949 1.0541 8.79999 1.18L5.48999 4.5L8.79999 7.82C8.92949 7.9459 9.00179 8.1194 8.99999 8.3C8.97569 8.6761 8.67609 8.9757 8.29999 9C8.11269 9.0062 7.9314 8.9337 7.79999 8.8L4.49999 5.51L1.20999 8.8C1.07859 8.9337 0.897295 9.0062 0.709995 9C0.326495 8.98 0.0199946 8.6735 -5.39684e-06 8.29C-0.0018054 8.1094 0.0704947 7.9359 0.199995 7.81L3.50999 4.5L0.189995 1.18C0.0640947 1.0524 -0.0045054 0.8792 -5.39684e-06 0.7C0.0242946 0.3239 0.323895 0.0243 0.699995 -2.5495e-08C0.885795 -0.00880003 1.06689 0.06 1.19999 0.19Z" fill="#EDEDED"/>
</svg>
