<svg width="2500" height="2500" viewBox="0 0 2500 2500" fill="none" xmlns="http://www.w3.org/2000/svg">
<g clip-path="url(#clip0)">
<path d="M1250 2500C1940.36 2500 2500 1940.36 2500 1250C2500 559.644 1940.36 6.10352e-05 1250 6.10352e-05C559.644 6.10352e-05 0 559.644 0 1250C0 1940.36 559.644 2500 1250 2500Z" fill="#EDEDED"/>
<path d="M1656.45 383.684H1379.54C1215.22 383.684 1032.44 452.797 1032.44 690.993C1033.24 773.99 1032.44 853.476 1032.44 942.933H842.339V1245.44H1038.32V2116.31H1398.45V1239.69H1636.15L1657.66 942.084H1392.25C1392.25 942.084 1392.84 809.694 1392.25 771.248C1392.25 677.118 1490.2 682.509 1496.09 682.509C1542.7 682.509 1633.32 682.644 1656.58 682.509V383.684H1656.45Z" fill="#1F2024"/>
</g>
<defs>
<clipPath id="clip0">
<rect width="2500" height="2500" fill="white"/>
</clipPath>
</defs>
</svg>
