<svg width="512" height="512" viewBox="0 0 512 512" fill="none" xmlns="http://www.w3.org/2000/svg">
<path d="M512 256C512 383.969 418.105 490.005 295.445 508.98C292.676 509.408 289.886 509.795 287.086 510.129C278.079 511.226 268.926 511.843 259.657 511.968C258.435 511.99 257.223 512 256 512C254.777 512 253.565 511.99 252.343 511.969C243.075 511.844 233.921 511.227 224.914 510.13C222.114 509.796 219.324 509.409 216.555 508.981C93.895 490.005 0 383.969 0 256C0 114.615 114.615 0 256 0C397.385 0 512 114.615 512 256Z" fill="#1F2024"/>
<path d="M512 256C512 265.644 511.467 275.163 510.422 284.536C510.307 285.581 510.192 286.636 510.067 287.681C509.409 292.989 508.583 298.255 507.611 303.459C507.423 304.493 507.224 305.517 507.015 306.531C488.917 396.967 423.183 470.183 337.073 498.886C324.095 501.394 319.487 493.421 319.487 486.598C319.487 478.166 319.78 450.601 319.78 416.349C319.78 392.463 311.598 376.883 302.424 368.942C346.759 364.01 392.849 349.82 411.135 297.471C411.501 296.447 411.846 295.402 412.18 294.347C413.204 291.16 414.113 287.837 414.928 284.368C415.168 283.334 415.409 282.289 415.628 281.223C418.021 269.886 419.317 257.086 419.317 242.624C419.317 214.683 409.38 191.842 392.965 173.912C395.629 167.465 404.396 141.426 390.457 106.161C390.457 106.161 368.995 99.286 320.125 132.409C299.666 126.735 277.754 123.893 256 123.789C234.245 123.893 212.344 126.736 191.916 132.409C143.004 99.286 121.5 106.161 121.5 106.161C107.603 141.426 116.37 167.465 119.024 173.912C102.65 191.842 92.64 214.684 92.64 242.624C92.64 257.075 93.936 269.875 96.339 281.212C96.558 282.278 96.788 283.323 97.029 284.357C97.844 287.826 98.764 291.159 99.788 294.346C100.122 295.401 100.478 296.446 100.833 297.47C119.108 349.725 165.073 364.114 209.283 369.14C201.958 375.535 195.323 386.83 193.024 403.381C178.416 409.922 141.364 421.228 118.533 382.096C118.533 382.096 104.991 357.52 79.287 355.712C79.287 355.712 54.303 355.388 77.542 371.271C77.542 371.271 94.313 379.15 105.963 408.731C105.963 408.731 120.989 454.424 192.209 438.939C192.324 460.328 192.554 480.495 192.554 486.597C192.554 493.357 187.862 501.288 175.062 498.916C88.9 470.235 23.092 397.009 4.984 306.531V306.521C4.775 305.507 4.576 304.483 4.399 303.459C3.417 298.255 2.591 292.989 1.943 287.681C1.807 286.636 1.692 285.591 1.577 284.536C0.533 275.163 0 265.644 0 256C0 114.615 114.636 0 256 0C397.375 0 512 114.615 512 256Z" fill="#EDEDED"/>
</svg>
