<svg width="2835" height="2835" viewBox="0 0 2835 2835" fill="none" xmlns="http://www.w3.org/2000/svg">
<g clip-path="url(#clip0)">
<path d="M1417.33 2834.65C2200.09 2834.65 2834.65 2200.09 2834.65 1417.32C2834.65 634.558 2200.09 0 1417.33 0C634.559 0 0.000976562 634.558 0.000976562 1417.32C0.000976562 2200.09 634.559 2834.65 1417.33 2834.65Z" fill="#EDEDED"/>
<path d="M1908.69 618H925.308C754.581 618 618 754.495 618 925.116V1907.88C618 2078.51 754.581 2215 925.308 2215H1908.69C2079.42 2215 2216 2078.51 2216 1907.88V925.115C2216 754.495 2079.42 618 1908.69 618ZM1997.47 802.269H2031.61V1075.26H1758.45V802.269H1997.47ZM1191.64 1252.71C1239.44 1184.46 1328.22 1136.68 1417 1136.68C1505.78 1136.68 1594.56 1184.46 1642.36 1252.71C1676.5 1300.48 1696.99 1355.08 1696.99 1416.5C1696.99 1573.47 1567.24 1696.32 1417 1696.32C1266.76 1696.32 1137.01 1573.47 1137.01 1416.5C1137.01 1355.08 1157.5 1300.48 1191.64 1252.71ZM2058.93 1907.88C2058.93 1989.78 1990.64 2058.03 1908.69 2058.03H925.308C843.36 2058.03 775.068 1989.78 775.068 1907.88V1252.71H1014.08C993.597 1300.48 979.94 1361.9 979.94 1416.5C979.94 1655.37 1177.98 1853.29 1417 1853.29C1656.02 1853.29 1854.06 1655.37 1854.06 1416.5C1854.06 1361.9 1840.4 1300.48 1819.91 1252.71H2058.93L2058.93 1907.88Z" fill="#1F2024"/>
</g>
<defs>
<clipPath id="clip0">
<rect width="2834.65" height="2834.65" fill="white"/>
</clipPath>
</defs>
</svg>
