<svg width="2500" height="2500" viewBox="0 0 2500 2500" fill="none" xmlns="http://www.w3.org/2000/svg">
<path d="M2500 1250C2500 1940.62 1940.62 2500 1250 2500C559.375 2500 0 1940.62 0 1250C0 559.375 559.375 0 1250 0C1940.62 0 2500 559.375 2500 1250Z" fill="url(#paint0_linear)"/>
<path d="M1020.83 1822.92C980.208 1822.92 987.5 1807.29 972.917 1768.75L854.167 1377.08L1591.67 916.667L1678.13 939.583L1606.25 1135.42L1020.83 1822.92Z" fill="#1F2024"/>
<path d="M1020.83 1822.92C1052.08 1822.92 1065.62 1808.33 1083.33 1791.67C1110.42 1765.62 1458.33 1427.08 1458.33 1427.08L1244.79 1375L1046.87 1500L1020.83 1812.5V1822.92Z" fill="#1F2024"/>
<path d="M1041.67 1504.17L1545.83 1876.04C1603.12 1907.29 1644.79 1891.67 1659.38 1822.92L1864.58 856.25C1885.42 771.875 1832.29 734.375 1777.08 759.375L572.917 1223.96C490.625 1257.29 491.667 1303.12 558.333 1322.92L867.708 1419.79L1583.33 968.75C1616.67 947.917 1647.92 959.375 1622.92 982.292L1041.67 1504.17Z" fill="#1F2024"/>
<defs>
<linearGradient id="paint0_linear" x1="1616.35" y1="395.104" x2="991.354" y2="1853.42" gradientUnits="userSpaceOnUse">
<stop stop-color="#EDEDED"/>
</linearGradient>
</defs>
</svg>
